<svg xmlns="http://www.w3.org/2000/svg" width="40" height="40" viewBox="0 0 40 40"><defs><style>.a{fill:#fff;}.b{fill:none;stroke:#6f87f6;stroke-linecap:round;stroke-miterlimit:10;}</style></defs><g transform="translate(-35 -585)"><g transform="translate(-245 -332)"><circle class="a" cx="20" cy="20" r="20" transform="translate(280 917)"/></g><g transform="translate(45.221 593.712)"><g transform="translate(0 0)"><path class="b" d="M17.505,6.7h1.121a2.266,2.266,0,0,1,2.266,2.266V21.323a2.266,2.266,0,0,1-2.266,2.266H11.565A2.266,2.266,0,0,1,9.3,21.323" transform="translate(-5.385 -3.877)"/><path class="b" d="M25.875,12.248H27a2.266,2.266,0,0,1,2.266,2.266V26.874A2.266,2.266,0,0,1,27,29.141H19.935a2.266,2.266,0,0,1-2.266-2.266" transform="translate(-10.231 -7.092)"/><path class="b" d="M10.581,18.147H3.52a2.266,2.266,0,0,1-2.266-2.266V3.52A2.266,2.266,0,0,1,3.52,1.254h7.062A2.266,2.266,0,0,1,12.847,3.52V15.881A2.266,2.266,0,0,1,10.581,18.147Z" transform="translate(-0.726 -0.726)"/><line class="b" x2="6.416" transform="translate(3.215 5.691)"/><line class="b" x2="4.335" transform="translate(3.215 8.531)"/><line class="b" x2="2.428" transform="translate(3.215 11.37)"/></g></g></g></svg>