<svg xmlns="http://www.w3.org/2000/svg" width="15.518" height="20.133" viewBox="0 0 15.518 20.133"><defs><style>.a{fill:rgba(0,0,0,0);stroke:#fff;}</style></defs><g transform="translate(-0.367 -0.377)"><g transform="translate(0.877 0.877)"><path class="a" d="M16.02,34.364H4.147A1.311,1.311,0,0,1,2.916,32.6,11.077,11.077,0,0,0,3.6,28.766V27.124a6.483,6.483,0,1,1,12.965,0v1.643A11.077,11.077,0,0,0,17.25,32.6,1.311,1.311,0,0,1,16.02,34.364Z" transform="translate(-2.834 -17.999)"/><path class="a" d="M30.443,113.149a3.265,3.265,0,0,0,6.455,0Z" transform="translate(-26.347 -96.785)"/><path class="a" d="M46.407,2.834h0a.845.845,0,0,0-.845.845V5.368h1.689V3.679A.845.845,0,0,0,46.407,2.834Z" transform="translate(-39.224 -2.834)"/></g></g></svg>