<svg xmlns="http://www.w3.org/2000/svg" width="15.86" height="11.265" viewBox="0 0 15.86 11.265"><defs><style>.a{fill:rgba(0,0,0,0);}.a,.b{stroke:#fc8a06;}.b{fill:none;}</style></defs><g transform="translate(-277.5 -422.321)"><g transform="translate(278 422.821)"><g transform="translate(0 0)"><path class="a" d="M15.481,2.835H14.024a2.3,2.3,0,0,1-4.567,0H5.049A2.214,2.214,0,0,0,2.835,5.049v5.838A2.214,2.214,0,0,0,5.049,13.1H9.5a2.305,2.305,0,0,1,4.487,0h1.5a2.214,2.214,0,0,0,2.214-2.214V5.049A2.214,2.214,0,0,0,15.481,2.835Z" transform="translate(-2.835 -2.835)"/><line class="b" y2="1.26" transform="translate(8.906 1.993)"/><line class="b" y2="1.969" transform="translate(8.906 4.148)"/><line class="b" y2="1.26" transform="translate(8.906 7.191)"/></g></g></g></svg>