<svg xmlns="http://www.w3.org/2000/svg" xmlns:xlink="http://www.w3.org/1999/xlink" width="16.285" height="23.109" viewBox="0 0 16.285 23.109"><defs><style>.a,.d{fill:#fc0b06;}.a{stroke:#ff0500;}.b{fill:none;stroke-linecap:round;stroke-miterlimit:10;}.b,.d{stroke:#fc0b06;}.c{clip-path:url(#a);}</style><clipPath id="a"><rect class="a" width="16.285" height="23.109"/></clipPath></defs><g transform="translate(0 0)"><line class="b" x2="8.261" transform="translate(4.078 8.697)"/><line class="b" x2="5.582" transform="translate(4.078 11.44)"/><line class="b" x2="3.126" transform="translate(4.078 14.184)"/><g transform="translate(0 0)"><g class="c"><path class="b" d="M2.835,7.434H7.11v-4.6" transform="translate(-2.155 -2.155)"/><path class="b" d="M14.844,24.585H5.752a2.918,2.918,0,0,1-2.917-2.917V5.752A2.917,2.917,0,0,1,5.752,2.835h9.092a2.917,2.917,0,0,1,2.917,2.917V21.667a2.917,2.917,0,0,1-2.917,2.917Z" transform="translate(-2.155 -2.155)"/><path class="d" d="M2.835,74.515v1.646a2.917,2.917,0,0,0,2.917,2.917h9.092a2.917,2.917,0,0,0,2.917-2.917V74.515Z" transform="translate(-2.155 -56.649)"/><path class="b" d="M2.835,74.515v1.646a2.917,2.917,0,0,0,2.917,2.917h9.092a2.917,2.917,0,0,0,2.917-2.917V74.515Z" transform="translate(-2.155 -56.649)"/></g></g></g></svg>