<svg xmlns="http://www.w3.org/2000/svg" width="17.717" height="11.624" viewBox="0 0 17.717 11.624"><defs><style>.a{fill:none;stroke:#fc8a06;stroke-linecap:round;stroke-miterlimit:10;}</style></defs><g transform="translate(0.341 0.341)"><g transform="translate(0.159 0.159)"><path class="a" d="M16.12,11.354H2.059A1.328,1.328,0,0,1,.731,10.026V2.221A1.491,1.491,0,0,1,2.222.73H15.957a1.491,1.491,0,0,1,1.491,1.491v7.806A1.328,1.328,0,0,1,16.12,11.354Z" transform="translate(-0.731 -0.73)"/><path class="a" d="M20.838,5.02l-6.527,6.288a1.992,1.992,0,0,1-2.764,0l-6.54-6.3" transform="translate(-4.57 -4.57)"/><line class="a" y1="5.01" x2="5.01" transform="translate(0.413 5.201)"/><line class="a" x1="4.953" y1="4.953" transform="translate(11.351 5.259)"/></g></g></svg>