<svg xmlns="http://www.w3.org/2000/svg" width="12.812" height="17" viewBox="0 0 12.812 17"><defs><style>.a{fill:rgba(0,0,0,0);}.a,.b{stroke:#fc8a06;stroke-linecap:round;}.b{fill:none;}</style></defs><g transform="translate(-2.334 -2.334)"><g transform="translate(2.834 2.834)"><path class="a" d="M28.5,16.185H22.329a1.494,1.494,0,0,1-1.494-1.494V4.328a1.494,1.494,0,0,1,1.494-1.494h4.144a1.494,1.494,0,0,1,1.064.446l2.03,2.061A1.494,1.494,0,0,1,30,6.389v8.3A1.494,1.494,0,0,1,28.5,16.185Z" transform="translate(-18.186 -2.834)"/><path class="a" d="M12,31.467v1.224A1.494,1.494,0,0,1,10.5,34.185H4.328a1.494,1.494,0,0,1-1.494-1.494V22.328a1.494,1.494,0,0,1,1.494-1.494H5.2" transform="translate(-2.834 -18.185)"/><line class="b" x2="5.071" transform="translate(4.436 4.763)"/><line class="b" x2="3.427" transform="translate(4.436 7.007)"/><line class="b" x2="1.919" transform="translate(4.436 9.251)"/><path class="a" d="M61.452,5.9V7.221a1.494,1.494,0,0,0,1.494,1.494H64.27" transform="translate(-52.825 -5.446)"/></g></g></svg>