<svg xmlns="http://www.w3.org/2000/svg" width="15.41" height="17.76" viewBox="0 0 15.41 17.76"><defs><style>.a{fill:none;stroke:#fc8a06;stroke-linecap:round;stroke-miterlimit:10;}</style></defs><g transform="translate(-0.028 -0.028)"><g transform="translate(0.528 0.528)"><path class="a" d="M15.69,6.7h.873A1.764,1.764,0,0,1,18.327,8.46v9.627a1.764,1.764,0,0,1-1.764,1.765h-5.5A1.765,1.765,0,0,1,9.3,18.087" transform="translate(-6.662 -4.912)"/><path class="a" d="M24.06,12.248h.873A1.764,1.764,0,0,1,26.7,14.012v9.626A1.765,1.765,0,0,1,24.933,25.4h-5.5a1.765,1.765,0,0,1-1.764-1.765" transform="translate(-12.288 -8.644)"/><path class="a" d="M8.518,14.41h-5.5a1.765,1.765,0,0,1-1.764-1.764V3.019A1.765,1.765,0,0,1,3.018,1.254h5.5a1.764,1.764,0,0,1,1.764,1.765v9.627A1.764,1.764,0,0,1,8.518,14.41Z" transform="translate(-1.254 -1.254)"/><line class="a" x2="4.997" transform="translate(2.092 4.021)"/><line class="a" x2="3.376" transform="translate(2.092 6.233)"/><line class="a" x2="1.891" transform="translate(2.092 8.444)"/></g></g></svg>