<svg xmlns="http://www.w3.org/2000/svg" xmlns:xlink="http://www.w3.org/1999/xlink" width="696" height="727" viewBox="0 0 696 727"><defs><style>.a{fill:#f5f6f7;}.b,.c{stroke:none;}.c{fill:#fff;}.d{filter:url(#a);}</style><filter id="a" x="0" y="0" width="696" height="727" filterUnits="userSpaceOnUse"><feOffset dy="26" input="SourceAlpha"/><feGaussianBlur stdDeviation="12" result="b"/><feFlood flood-color="#6f87f6" flood-opacity="0.082"/><feComposite operator="in" in2="b"/><feComposite in="SourceGraphic"/></filter></defs><g class="d" transform="matrix(1, 0, 0, 1, 0, 0)"><g class="a" transform="translate(36 10)"><path class="b" d="M 604 654.5 L 20 654.5 C 17.36733245849609 654.5 14.81358337402344 653.9844970703125 12.40991687774658 652.9678344726562 C 10.08791637420654 651.9856567382812 8.002416610717773 650.57958984375 6.211416721343994 648.78857421875 C 4.420416831970215 646.99755859375 3.014333248138428 644.9121704101562 2.032166719436646 642.5901489257812 C 1.015499949455261 640.1864013671875 0.5 637.6327514648438 0.5 635 L 0.5 20 C 0.5 17.36733245849609 1.015499949455261 14.81358337402344 2.032166719436646 12.40991687774658 C 3.014333248138428 10.08791637420654 4.420416831970215 8.002416610717773 6.211416721343994 6.211416721343994 C 8.002416610717773 4.420416831970215 10.08791637420654 3.014333248138428 12.40991687774658 2.032166719436646 C 14.81358337402344 1.015499949455261 17.36733245849609 0.5 20 0.5 L 604 0.5 C 606.6327514648438 0.5 609.1864013671875 1.015499949455261 611.5901489257812 2.032166719436646 C 613.9121704101562 3.014333248138428 615.99755859375 4.420416831970215 617.78857421875 6.211416721343994 C 619.57958984375 8.002416610717773 620.9856567382812 10.08791637420654 621.9678344726562 12.40991687774658 C 622.9844970703125 14.81358337402344 623.5 17.36733245849609 623.5 20 L 623.5 635 C 623.5 637.6327514648438 622.9844970703125 640.1864013671875 621.9678344726562 642.5901489257812 C 620.9856567382812 644.9121704101562 619.57958984375 646.99755859375 617.78857421875 648.78857421875 C 615.99755859375 650.57958984375 613.9121704101562 651.9856567382812 611.5901489257812 652.9678344726562 C 609.1864013671875 653.9844970703125 606.6327514648438 654.5 604 654.5 Z"/><path class="c" d="M 20 1 C 17.4345703125 1 14.9464111328125 1.50225830078125 12.60455322265625 2.49267578125 C 10.34222412109375 3.4495849609375 8.3101806640625 4.81964111328125 6.56494140625 6.56494140625 C 4.81964111328125 8.3101806640625 3.4495849609375 10.34222412109375 2.49267578125 12.60455322265625 C 1.50225830078125 14.9464111328125 1 17.4345703125 1 20 L 1 635 C 1 637.5654296875 1.50225830078125 640.0535888671875 2.49267578125 642.3953247070312 C 3.4495849609375 644.6577758789062 4.81964111328125 646.6897583007812 6.56494140625 648.4349975585938 C 8.3101806640625 650.1802368164062 10.34222412109375 651.5504150390625 12.60467529296875 652.50732421875 C 14.9464111328125 653.4977416992188 17.4345703125 654 20 654 L 604 654 C 606.5654296875 654 609.0535888671875 653.4977416992188 611.3953247070312 652.50732421875 C 613.6577758789062 651.5504150390625 615.6897583007812 650.1802368164062 617.4349975585938 648.4349975585938 C 619.1802368164062 646.6897583007812 620.5504150390625 644.6577758789062 621.50732421875 642.3953247070312 C 622.4977416992188 640.0535888671875 623 637.5654296875 623 635 L 623 20 C 623 17.4345703125 622.4977416992188 14.9464111328125 621.50732421875 12.60467529296875 C 620.5504150390625 10.34222412109375 619.1802368164062 8.3101806640625 617.4349975585938 6.56494140625 C 615.6897583007812 4.81964111328125 613.6577758789062 3.4495849609375 611.3953247070312 2.49267578125 C 609.0535888671875 1.50225830078125 606.5654296875 1 604 1 L 20 1 M 20 0 L 604 0 C 615.045654296875 0 624 8.9542236328125 624 20 L 624 635 C 624 646.045654296875 615.045654296875 655 604 655 L 20 655 C 8.9542236328125 655 0 646.045654296875 0 635 L 0 20 C 0 8.9542236328125 8.9542236328125 0 20 0 Z"/></g></g></svg>