<svg xmlns="http://www.w3.org/2000/svg" width="345" height="174" viewBox="0 0 345 174"><defs><style>.a{fill:#f5f6f7;}.b,.c{stroke:none;}.c{fill:#eff3f6;}</style></defs><g class="a"><path class="b" d="M 325 173.5 L 20 173.5 C 17.36731910705566 173.5 14.81363677978516 172.9844970703125 12.40986347198486 171.9678192138672 C 10.08790874481201 170.9856872558594 8.002408981323242 169.57958984375 6.211409091949463 167.7885894775391 C 4.420409202575684 165.9975891113281 3.014318227767944 163.9120941162109 2.032181739807129 161.5901336669922 C 1.015499949455261 159.1863708496094 0.5 156.6326751708984 0.5 154 L 0.5 20 C 0.5 17.36731910705566 1.015499949455261 14.81363677978516 2.032181739807129 12.40986347198486 C 3.014318227767944 10.08790874481201 4.420409202575684 8.002408981323242 6.211409091949463 6.211409091949463 C 8.002408981323242 4.420409202575684 10.08790874481201 3.014318227767944 12.40986347198486 2.032181739807129 C 14.81363677978516 1.015499949455261 17.36731910705566 0.5 20 0.5 L 325 0.5 C 327.6326904296875 0.5 330.1863708496094 1.015499949455261 332.5901489257812 2.032181739807129 C 334.9120788574219 3.014318227767944 336.9975891113281 4.420409202575684 338.7886047363281 6.211409091949463 C 340.57958984375 8.002408981323242 341.9856872558594 10.08790874481201 342.9678039550781 12.40986347198486 C 343.9844970703125 14.81363677978516 344.5 17.36731910705566 344.5 20 L 344.5 154 C 344.5 156.6326751708984 343.9844970703125 159.1863708496094 342.9678039550781 161.5901336669922 C 341.9856872558594 163.9120941162109 340.57958984375 165.9975891113281 338.7886047363281 167.7885894775391 C 336.9975891113281 169.57958984375 334.9120788574219 170.9856872558594 332.5901489257812 171.9678192138672 C 330.1863708496094 172.9844970703125 327.6326904296875 173.5 325 173.5 Z"/><path class="c" d="M 20 1 C 17.43460083007812 1 14.9464111328125 1.502227783203125 12.60464477539062 2.492721557617188 C 10.34228515625 3.449630737304688 8.31024169921875 4.819732666015625 6.56494140625 6.564956665039062 C 4.819732666015625 8.310226440429688 3.44964599609375 10.34226989746094 2.49273681640625 12.60462951660156 C 1.502227783203125 14.9464111328125 1 17.43458557128906 1 20 L 1 154 C 1 156.5654144287109 1.502227783203125 159.0535888671875 2.49273681640625 161.3953704833984 C 3.44964599609375 163.6577301025391 4.819732666015625 165.6897735595703 6.56494140625 167.4350433349609 C 8.31024169921875 169.1802673339844 10.34228515625 170.5503692626953 12.60464477539062 171.5072784423828 C 14.9464111328125 172.4977722167969 17.43460083007812 173 20 173 L 325 173 C 327.5653991699219 173 330.0535888671875 172.4977722167969 332.3953552246094 171.5072784423828 C 334.65771484375 170.5503692626953 336.6897583007812 169.1802673339844 338.43505859375 167.4350433349609 C 340.1802673339844 165.6897735595703 341.5503540039062 163.6577301025391 342.5072631835938 161.3953704833984 C 343.4977722167969 159.0535888671875 344 156.5654144287109 344 154 L 344 20 C 344 17.43458557128906 343.4977722167969 14.9464111328125 342.5072631835938 12.60462951660156 C 341.5503540039062 10.34226989746094 340.1802673339844 8.310226440429688 338.43505859375 6.564956665039062 C 336.6897583007812 4.819732666015625 334.65771484375 3.449630737304688 332.3953552246094 2.492721557617188 C 330.0535888671875 1.502227783203125 327.5653991699219 1 325 1 L 20 1 M 20 0 L 325 0 C 336.0456848144531 0 345 8.954315185546875 345 20 L 345 154 C 345 165.0456848144531 336.0456848144531 174 325 174 L 20 174 C 8.954315185546875 174 0 165.0456848144531 0 154 L 0 20 C 0 8.954315185546875 8.954315185546875 0 20 0 Z"/></g></svg>