<svg width="24" height="28" viewBox="0 0 24 28" fill="none" xmlns="http://www.w3.org/2000/svg">
<path d="M14.7697 4.15906H16.1012C17.5877 4.15906 18.7922 5.36408 18.7922 6.85011V21.5324C18.7922 23.0189 17.5877 24.224 16.1012 24.224H7.71352C6.22749 24.224 5.02246 23.0189 5.02246 21.5324" stroke="#6F6F6F"/>
<path d="M18.9547 6.93512H20.2862C21.7728 6.93512 22.9773 8.14014 22.9773 9.62617V24.308C22.9773 25.795 21.7728 27 20.2862 27H11.8986C10.4125 27 9.20752 25.795 9.20752 24.308" stroke="#6F6F6F"/>
<path d="M12.0787 21.5029H7.88764H3.69105C2.20502 21.5029 1 20.2979 1 18.8118V10.9782V4.12954C1 2.64301 2.20502 1.43799 3.69105 1.43799H8.56115H12.0787C13.5653 1.43799 14.7698 2.64301 14.7698 4.12954V10.4737V18.8118C14.7698 20.2979 13.5653 21.5029 12.0787 21.5029Z" stroke="#6F6F6F"/>
<line x1="4.19141" y1="7.07086" x2="11.8126" y2="7.07086" stroke="#6F6F6F"/>
<line x1="4.19141" y1="10.4438" x2="9.34101" y2="10.4438" stroke="#6F6F6F"/>
<line x1="4.19141" y1="13.8168" x2="7.07496" y2="13.8168" stroke="#6F6F6F"/>
</svg>
