<svg width="28" height="20" viewBox="0 0 28 20" fill="none" xmlns="http://www.w3.org/2000/svg">
<path d="M25.081 19.4025H3.07888C1.93106 19.4025 1.00049 18.3745 1.00049 17.1065V3.61281C1.00049 2.18951 2.04489 1.03552 3.33336 1.03552H20.737H24.8265C26.115 1.03552 27.1594 2.18951 27.1594 3.61281V17.1065C27.1594 18.3745 26.2288 19.4025 25.081 19.4025Z" stroke="#6F6F6F"/>
<path d="M11.755 6.59563C11.755 7.81386 10.7675 8.80161 9.54906 8.80161C8.33084 8.80161 7.34326 7.81386 7.34326 6.59563C7.34326 5.3774 8.33084 4.38965 9.54906 4.38965C10.7675 4.38965 11.755 5.3774 11.755 6.59563Z" stroke="#6F6F6F"/>
<path d="M6.42331 14.2802L9.00448 12.1821C9.51486 11.767 10.2321 11.7199 10.7926 12.0644L13.0674 13.4626C13.7886 13.9057 14.7317 13.6883 15.1858 12.9741L17.3187 9.6189C17.9339 8.65127 19.3505 8.66415 19.9479 9.6429L22.9332 14.5329C23.3367 15.1939 22.8609 16.0415 22.0867 16.0415H7.04875C6.11535 16.0415 5.69886 14.8691 6.42331 14.2802Z" stroke="#6F6F6F"/>
</svg>
