<svg width="25" height="18" viewBox="0 0 25 18" fill="none" xmlns="http://www.w3.org/2000/svg">
<path d="M20.4699 0.820862H18.2273C17.9905 2.55301 16.5088 3.88881 14.7115 3.88881C12.9145 3.88881 11.4328 2.55301 11.196 0.820862H4.4084C2.52625 0.820862 1.00049 2.34662 1.00049 4.22878V13.2169C1.00049 15.0991 2.52625 16.6248 4.4084 16.6248H11.2579C11.6285 15.0588 13.0322 13.8922 14.7115 13.8922C16.3911 13.8922 17.7948 15.0588 18.1654 16.6248H20.4699C22.3521 16.6248 23.8779 15.0991 23.8779 13.2169V4.22878C23.8779 2.34662 22.3521 0.820862 20.4699 0.820862Z" stroke="#6F6F6F"/>
<line x1="15.2114" y1="3.88873" x2="15.2114" y2="5.82864" stroke="#6F6F6F"/>
<line x1="15.2114" y1="7.20679" x2="15.2114" y2="10.2389" stroke="#6F6F6F"/>
<line x1="15.2114" y1="11.8925" x2="15.2114" y2="13.8324" stroke="#6F6F6F"/>
</svg>
