<svg width="297" height="27" viewBox="0 0 297 27" fill="none" xmlns="http://www.w3.org/2000/svg">
<mask id="mask0_1_3162" style="mask-type:alpha" maskUnits="userSpaceOnUse" x="0" y="0" width="297" height="27">
<path d="M294 25.4997V1.5003C294 0.6714 294.672 0 295.5 0C296.329 0 297 0.6714 297 1.5003V25.4997C297 26.3286 296.329 27 295.5 27C294.672 27 294 26.3286 294 25.4997ZM287 25.4997V1.5003C287 0.6714 287.672 0 288.5 0C289.328 0 290 0.6714 290 1.5003V25.4997C290 26.3286 289.328 27 288.5 27C287.672 27 287 26.3286 287 25.4997ZM280 25.4997V1.5003C280 0.6714 280.671 0 281.5 0C282.328 0 283 0.6714 283 1.5003V25.4997C283 26.3286 282.328 27 281.5 27C280.671 27 280 26.3286 280 25.4997ZM273 25.4997V1.5003C273 0.6714 273.672 0 274.5 0C275.328 0 276 0.6714 276 1.5003V25.4997C276 26.3286 275.328 27 274.5 27C273.672 27 273 26.3286 273 25.4997ZM266 25.4997V1.5003C266 0.6714 266.672 0 267.5 0C268.329 0 269 0.6714 269 1.5003V25.4997C269 26.3286 268.329 27 267.5 27C266.672 27 266 26.3286 266 25.4997ZM259 25.4997V1.5003C259 0.6714 259.672 0 260.5 0C261.328 0 262 0.6714 262 1.5003V25.4997C262 26.3286 261.328 27 260.5 27C259.672 27 259 26.3286 259 25.4997ZM252 25.4997V1.5003C252 0.6714 252.671 0 253.5 0C254.328 0 255 0.6714 255 1.5003V25.4997C255 26.3286 254.328 27 253.5 27C252.671 27 252 26.3286 252 25.4997ZM245 25.4997V1.5003C245 0.6714 245.671 0 246.5 0C247.328 0 248 0.6714 248 1.5003V25.4997C248 26.3286 247.328 27 246.5 27C245.671 27 245 26.3286 245 25.4997ZM238 25.4997V1.5003C238 0.6714 238.672 0 239.5 0C240.329 0 241 0.6714 241 1.5003V25.4997C241 26.3286 240.329 27 239.5 27C238.672 27 238 26.3286 238 25.4997ZM231 25.4997V1.5003C231 0.6714 231.672 0 232.5 0C233.329 0 234 0.6714 234 1.5003V25.4997C234 26.3286 233.329 27 232.5 27C231.672 27 231 26.3286 231 25.4997ZM224 25.4997V1.5003C224 0.6714 224.672 0 225.5 0C226.328 0 227 0.6714 227 1.5003V25.4997C227 26.3286 226.328 27 225.5 27C224.672 27 224 26.3286 224 25.4997ZM217 25.4997V1.5003C217 0.6714 217.671 0 218.5 0C219.328 0 220 0.6714 220 1.5003V25.4997C220 26.3286 219.328 27 218.5 27C217.671 27 217 26.3286 217 25.4997ZM210 25.4997V1.5003C210 0.6714 210.672 0 211.5 0C212.328 0 213 0.6714 213 1.5003V25.4997C213 26.3286 212.328 27 211.5 27C210.672 27 210 26.3286 210 25.4997ZM203 25.4997V1.5003C203 0.6714 203.672 0 204.5 0C205.329 0 206 0.6714 206 1.5003V25.4997C206 26.3286 205.329 27 204.5 27C203.672 27 203 26.3286 203 25.4997ZM196 25.4997V1.5003C196 0.6714 196.672 0 197.5 0C198.329 0 199 0.6714 199 1.5003V25.4997C199 26.3286 198.329 27 197.5 27C196.672 27 196 26.3286 196 25.4997ZM189 25.4997V1.5003C189 0.6714 189.671 0 190.5 0C191.328 0 192 0.6714 192 1.5003V25.4997C192 26.3286 191.328 27 190.5 27C189.671 27 189 26.3286 189 25.4997ZM182 25.4997V1.5003C182 0.6714 182.671 0 183.5 0C184.328 0 185 0.6714 185 1.5003V25.4997C185 26.3286 184.328 27 183.5 27C182.671 27 182 26.3286 182 25.4997ZM175 25.4997V1.5003C175 0.6714 175.672 0 176.5 0C177.329 0 178 0.6714 178 1.5003V25.4997C178 26.3286 177.329 27 176.5 27C175.672 27 175 26.3286 175 25.4997ZM168 25.4997V1.5003C168 0.6714 168.672 0 169.5 0C170.329 0 171 0.6714 171 1.5003V25.4997C171 26.3286 170.329 27 169.5 27C168.672 27 168 26.3286 168 25.4997ZM161 25.4997V1.5003C161 0.6714 161.672 0 162.5 0C163.328 0 164 0.6714 164 1.5003V25.4997C164 26.3286 163.328 27 162.5 27C161.672 27 161 26.3286 161 25.4997ZM154 25.4997V1.5003C154 0.6714 154.671 0 155.5 0C156.328 0 157 0.6714 157 1.5003V25.4997C157 26.3286 156.328 27 155.5 27C154.671 27 154 26.3286 154 25.4997ZM147 25.4997V1.5003C147 0.6714 147.672 0 148.5 0C149.328 0 150 0.6714 150 1.5003V25.4997C150 26.3286 149.328 27 148.5 27C147.672 27 147 26.3286 147 25.4997ZM140 25.4997V1.5003C140 0.6714 140.672 0 141.5 0C142.329 0 143 0.6714 143 1.5003V25.4997C143 26.3286 142.329 27 141.5 27C140.672 27 140 26.3286 140 25.4997ZM133 25.4997V1.5003C133 0.6714 133.672 0 134.5 0C135.329 0 136 0.6714 136 1.5003V25.4997C136 26.3286 135.329 27 134.5 27C133.672 27 133 26.3286 133 25.4997ZM126 25.4997V1.5003C126 0.6714 126.671 0 127.5 0C128.328 0 129 0.6714 129 1.5003V25.4997C129 26.3286 128.328 27 127.5 27C126.671 27 126 26.3286 126 25.4997ZM119 25.4997V1.5003C119 0.6714 119.671 0 120.5 0C121.328 0 122 0.6714 122 1.5003V25.4997C122 26.3286 121.328 27 120.5 27C119.671 27 119 26.3286 119 25.4997ZM112 25.4997V1.5003C112 0.6714 112.672 0 113.5 0C114.329 0 115 0.6714 115 1.5003V25.4997C115 26.3286 114.329 27 113.5 27C112.672 27 112 26.3286 112 25.4997ZM105 25.4997V1.5003C105 0.6714 105.672 0 106.5 0C107.329 0 108 0.6714 108 1.5003V25.4997C108 26.3286 107.329 27 106.5 27C105.672 27 105 26.3286 105 25.4997ZM98.0001 25.4997V1.5003C98.0001 0.6714 98.6715 0 99.5004 0C100.328 0 101 0.6714 101 1.5003V25.4997C101 26.3286 100.328 27 99.5004 27C98.6715 27 98.0001 26.3286 98.0001 25.4997ZM90.9999 25.4997V1.5003C90.9999 0.6714 91.6713 0 92.5002 0C93.3282 0 93.9996 0.6714 93.9996 1.5003V25.4997C93.9996 26.3286 93.3282 27 92.5002 27C91.6713 27 90.9999 26.3286 90.9999 25.4997ZM83.9997 25.4997V1.5003C83.9997 0.6714 84.672 0 85.5 0C86.328 0 87.0003 0.6714 87.0003 1.5003V25.4997C87.0003 26.3286 86.328 27 85.5 27C84.672 27 83.9997 26.3286 83.9997 25.4997ZM77.0004 25.4997V1.5003C77.0004 0.6714 77.6718 0 78.4998 0C79.3287 0 80.0001 0.6714 80.0001 1.5003V25.4997C80.0001 26.3286 79.3287 27 78.4998 27C77.6718 27 77.0004 26.3286 77.0004 25.4997ZM70.0002 25.4997V1.5003C70.0002 0.6714 70.6716 0 71.4996 0C72.3285 0 72.9999 0.6714 72.9999 1.5003V25.4997C72.9999 26.3286 72.3285 27 71.4996 27C70.6716 27 70.0002 26.3286 70.0002 25.4997ZM63 25.4997V1.5003C63 0.6714 63.6714 0 64.5003 0C65.3283 0 65.9997 0.6714 65.9997 1.5003V25.4997C65.9997 26.3286 65.3283 27 64.5003 27C63.6714 27 63 26.3286 63 25.4997ZM55.9998 25.4997V1.5003C55.9998 0.6714 56.6712 0 57.5001 0C58.3281 0 59.0004 0.6714 59.0004 1.5003V25.4997C59.0004 26.3286 58.3281 27 57.5001 27C56.6712 27 55.9998 26.3286 55.9998 25.4997ZM48.9996 25.4997V1.5003C48.9996 0.6714 49.6719 0 50.4999 0C51.3288 0 52.0002 0.6714 52.0002 1.5003V25.4997C52.0002 26.3286 51.3288 27 50.4999 27C49.6719 27 48.9996 26.3286 48.9996 25.4997ZM42.0003 25.4997V1.5003C42.0003 0.6714 42.6717 0 43.4997 0C44.3286 0 45 0.6714 45 1.5003V25.4997C45 26.3286 44.3286 27 43.4997 27C42.6717 27 42.0003 26.3286 42.0003 25.4997ZM35.0001 25.4997V1.5003C35.0001 0.6714 35.6715 0 36.5004 0C37.3284 0 37.9998 0.6714 37.9998 1.5003V25.4997C37.9998 26.3286 37.3284 27 36.5004 27C35.6715 27 35.0001 26.3286 35.0001 25.4997ZM27.9999 25.4997V1.5003C27.9999 0.6714 28.6713 0 29.5002 0C30.3282 0 30.9996 0.6714 30.9996 1.5003V25.4997C30.9996 26.3286 30.3282 27 29.5002 27C28.6713 27 27.9999 26.3286 27.9999 25.4997ZM20.9997 25.4997V1.5003C20.9997 0.6714 21.672 0 22.5 0C23.328 0 24.0003 0.6714 24.0003 1.5003V25.4997C24.0003 26.3286 23.328 27 22.5 27C21.672 27 20.9997 26.3286 20.9997 25.4997ZM14.0004 25.4997V1.5003C14.0004 0.6714 14.6718 0 15.4998 0C16.3287 0 17.0001 0.6714 17.0001 1.5003V25.4997C17.0001 26.3286 16.3287 27 15.4998 27C14.6718 27 14.0004 26.3286 14.0004 25.4997ZM7.0002 25.4997V1.5003C7.0002 0.6714 7.6716 0 8.4996 0C9.3285 0 9.9999 0.6714 9.9999 1.5003V25.4997C9.9999 26.3286 9.3285 27 8.4996 27C7.6716 27 7.0002 26.3286 7.0002 25.4997ZM0 25.4997V1.5003C0 0.6714 0.6714 0 1.5003 0C2.3283 0 2.9997 0.6714 2.9997 1.5003V25.4997C2.9997 26.3286 2.3283 27 1.5003 27C0.6714 27 0 26.3286 0 25.4997Z" fill="#F3F5F7"/>
</mask>
<g mask="url(#mask0_1_3162)">
<rect y="-7" width="297" height="41" fill="url(#paint0_linear_1_3162)"/>
</g>
<defs>
<linearGradient id="paint0_linear_1_3162" x1="74.25" y1="3.25" x2="74.25" y2="3.25" gradientUnits="userSpaceOnUse">
<stop offset="1" stop-color="#0062FF"/>
<stop offset="0.832512" stop-color="#19E58D"/>
<stop offset="0.591133" stop-color="#3DE40E"/>
<stop offset="0.344828" stop-color="#FFE100"/>
<stop offset="0.157635" stop-color="#EC693A"/>
<stop stop-color="#FF0000"/>
</linearGradient>
</defs>
</svg>
