<svg width="18" height="22" viewBox="0 0 18 22" fill="none" xmlns="http://www.w3.org/2000/svg">
<path d="M1 8.69727C1 7.5927 1.89543 6.69727 3 6.69727H14.8114C15.916 6.69727 16.8114 7.5927 16.8114 8.69727V18.5321C16.8114 19.6367 15.916 20.5321 14.8114 20.5321H3C1.89543 20.5321 1 19.6367 1 18.5321V8.69727Z" stroke="#6F6F6F"/>
<path d="M1.84326 6.94633V4.50471C1.84326 3.58004 2.59261 2.83069 3.51729 2.83069H14.2942C15.2185 2.83069 15.9678 3.58004 15.9678 4.50471V6.94633" stroke="#6F6F6F"/>
<path d="M5.0622 4.70674C4.59344 4.70674 4.21338 4.32668 4.21338 3.85792V1.80341C4.21338 1.33465 4.59344 0.95459 5.0622 0.95459C5.53096 0.95459 5.91103 1.33465 5.91103 1.80341V3.85792C5.91103 4.32668 5.53096 4.70674 5.0622 4.70674Z" stroke="#6F6F6F"/>
<path d="M12.7492 4.70674C12.2805 4.70674 11.9004 4.32668 11.9004 3.85792V1.80341C11.9004 1.33465 12.2805 0.95459 12.7492 0.95459C13.218 0.95459 13.598 1.33465 13.598 1.80341V3.85792C13.598 4.32668 13.218 4.70674 12.7492 4.70674Z" stroke="#6F6F6F"/>
<path d="M6.0835 13.1819L7.75918 14.8576L11.7277 10.8887" stroke="#6F6F6F"/>
</svg>
