<svg width="16" height="21" viewBox="0 0 16 21" fill="none" xmlns="http://www.w3.org/2000/svg">
<path d="M14.186 17.3999H2.31283C1.40037 17.3999 0.766952 16.4912 1.08262 15.6351C1.53522 14.4078 1.76678 13.1103 1.76678 11.8024V10.1596C1.76678 6.57938 4.66924 3.67706 8.24933 3.67706C11.8296 3.67706 14.7319 6.57938 14.7319 10.1596V11.8024C14.7319 13.1103 14.9636 14.4078 15.4162 15.6351C15.7319 16.4912 15.0984 17.3999 14.186 17.3999Z" stroke="#6F6F6F"/>
<path d="M5.09619 17.3999C5.33517 18.9674 6.68909 20.1686 8.32352 20.1686C9.95781 20.1686 11.3117 18.9674 11.5507 17.3999H5.09619Z" stroke="#6F6F6F"/>
<path d="M8.18353 1.03552C7.71699 1.03552 7.33887 1.41365 7.33887 1.88018V3.56936H9.02819V1.88018C9.02819 1.41365 8.65007 1.03552 8.18353 1.03552Z" stroke="#6F6F6F"/>
</svg>
