<svg width="42" height="20" viewBox="0 0 42 20" fill="none" xmlns="http://www.w3.org/2000/svg">
<path d="M21.0103 4.95696V3.62543C21.0103 2.1389 22.2152 0.934376 23.7012 0.934376H38.383C39.8695 0.934376 41.0745 2.1389 41.0745 3.62543V12.0131C41.0745 13.4991 39.8695 14.7042 38.383 14.7042" stroke="#6F6F6F"/>
<path d="M38.3533 7.64802V11.8391V16.0357C38.3533 17.5217 37.1483 18.7267 35.6623 18.7267H27.8289H20.9805C19.494 18.7267 18.2891 17.5217 18.2891 16.0357V11.1656V7.64802C18.2891 6.16149 19.494 4.95696 20.9805 4.95696H27.3244H35.6623C37.1483 4.95696 38.3533 6.16149 38.3533 7.64802Z" stroke="#6F6F6F"/>
<path d="M0.730469 5.76813L7.57422 12.6128L14.4199 5.76813" stroke="#707070"/>
</svg>
