<svg width="17" height="22" viewBox="0 0 17 22" fill="none" xmlns="http://www.w3.org/2000/svg">
<path d="M0.6875 8.74268C0.6875 7.63811 1.58293 6.74268 2.6875 6.74268H14.4989C15.6035 6.74268 16.4989 7.63811 16.4989 8.74268V18.5775C16.4989 19.6821 15.6035 20.5775 14.4989 20.5775H2.6875C1.58293 20.5775 0.6875 19.6821 0.6875 18.5775V8.74268Z" stroke="white"/>
<path d="M1.53076 6.99161V4.55C1.53076 3.62533 2.28011 2.87598 3.20479 2.87598H13.9817C14.906 2.87598 15.6553 3.62533 15.6553 4.55V6.99161" stroke="white"/>
<path d="M4.7497 4.75215C4.28094 4.75215 3.90088 4.37209 3.90088 3.90333V1.84882C3.90088 1.38006 4.28094 1 4.7497 1C5.21846 1 5.59853 1.38006 5.59853 1.84882V3.90333C5.59853 4.37209 5.21846 4.75215 4.7497 4.75215Z" stroke="white"/>
<path d="M12.4367 4.75215C11.968 4.75215 11.5879 4.37209 11.5879 3.90333V1.84882C11.5879 1.38006 11.968 1 12.4367 1C12.9055 1 13.2855 1.38006 13.2855 1.84882V3.90333C13.2855 4.37209 12.9055 4.75215 12.4367 4.75215Z" stroke="white"/>
<path d="M5.771 13.2273L7.44668 14.903L11.4152 10.9341" stroke="white"/>
</svg>
