<svg width="18" height="20" viewBox="0 0 18 20" fill="none" xmlns="http://www.w3.org/2000/svg">
<path d="M7.82225 1.62139L1.42239 9.12827C1.14942 9.4483 0.999512 9.85521 0.999512 10.276V17.2309C0.999512 18.2079 1.79161 19 2.76854 19H4.80757C5.7845 19 6.5766 18.2079 6.5766 17.2309V16.3611C6.5766 15.384 7.3687 14.5921 8.34563 14.5921H9.99137C10.9683 14.5921 11.7604 15.384 11.7604 16.3611V17.2309C11.7604 18.2079 12.5525 19 13.5294 19H15.5685C16.5456 19 17.3375 18.2079 17.3375 17.2309V10.276C17.3375 9.85521 17.1876 9.4483 16.9146 9.12827L10.5148 1.62139C9.80847 0.792871 8.52854 0.792871 7.82225 1.62139Z" stroke="#6F6F6F" stroke-linecap="round" stroke-linejoin="round"/>
</svg>
