<svg xmlns="http://www.w3.org/2000/svg" width="12.457" height="12.641" viewBox="0 0 12.457 12.641">
  <g id="Group_30496" data-name="Group 30496" transform="translate(0.25 0.248)">
    <g id="Group_506" data-name="Group 506">
      <path id="Path_11759" data-name="Path 11759" d="M51.146,4.725a1.89,1.89,0,1,1-1.89-1.89A1.89,1.89,0,0,1,51.146,4.725Z" transform="translate(-43.161 -2.583)" fill="none" stroke="#231f20" stroke-width="1"/>
      <path id="Path_11760" data-name="Path 11760" d="M40.136,58.139h-5a.52.52,0,0,1-.486-.706l.171-.447a1.455,1.455,0,0,1,1.359-.935h2.916a1.455,1.455,0,0,1,1.359.935l.171.447A.52.52,0,0,1,40.136,58.139Z" transform="translate(-31.54 -51.076)" fill="none" stroke="#231f20" stroke-width="1"/>
      <path id="Path_11761" data-name="Path 11761" d="M13.5,79.682H3.62a.785.785,0,0,0-.778.887l.427,3.25a.785.785,0,0,0,.778.682h9.031a.785.785,0,0,0,.778-.682l.427-3.25A.785.785,0,0,0,13.5,79.682Z" transform="translate(-2.583 -72.609)" fill="none" stroke="#231f20" stroke-width="1"/>
    </g>
  </g>
</svg>
