<svg xmlns="http://www.w3.org/2000/svg" width="336.508" height="942.5" viewBox="0 0 336.508 942.5">
  <path id="Path_4" data-name="Path 4" d="M12.072,12.448H3.754a.919.919,0,0,1-.862-1.236,7.76,7.76,0,0,0,.479-2.685V7.376a4.542,4.542,0,1,1,9.084,0V8.527a7.76,7.76,0,0,0,.479,2.685A.919.919,0,0,1,12.072,12.448Z" transform="translate(-2.326 -2.334)" fill="#2e2e38" stroke="#eff3f6" stroke-width="1"/>
  <path id="Path_5" data-name="Path 5" d="M30.443,95.342a2.288,2.288,0,0,0,4.522,0Z" transform="translate(-27.065 -85.228)" fill="#2e2e38" stroke="#eff3f6" stroke-width="1"/>
  <circle id="Ellipse_14" data-name="Ellipse 14" cx="4" cy="4" r="4" transform="translate(328.508 934.5)" fill="#89f4c9"/>
</svg>
