<svg xmlns="http://www.w3.org/2000/svg" width="11.174" height="14.943" viewBox="0 0 11.174 14.943">
  <g id="Group_815" data-name="Group 815" transform="translate(0.508 2.889)">
    <path id="Path_4" data-name="Path 4" d="M12.072,12.448H3.754a.919.919,0,0,1-.862-1.236,7.76,7.76,0,0,0,.479-2.685V7.376a4.542,4.542,0,1,1,9.084,0V8.527a7.76,7.76,0,0,0,.479,2.685A.919.919,0,0,1,12.072,12.448Z" transform="translate(-2.834 -2.834)" fill="rgba(0,0,0,0)" stroke="#eff3f6" stroke-width="1"/>
    <path id="Path_5" data-name="Path 5" d="M30.443,95.342a2.288,2.288,0,0,0,4.522,0Z" transform="translate(-27.574 -85.728)" fill="rgba(0,0,0,0)" stroke="#eff3f6" stroke-width="1"/>
    <path id="Path_35" data-name="Path 35" d="M1661.649,896.931v2.389" transform="translate(-1656.57 -899.32)" fill="none" stroke="#eff3f6" stroke-linecap="round" stroke-width="1"/>
  </g>
</svg>
