<svg xmlns="http://www.w3.org/2000/svg" width="336.508" height="944.889" viewBox="0 0 336.508 944.889">
  <path id="Path_4" data-name="Path 4" d="M12.072,12.448H3.754a.919.919,0,0,1-.862-1.236,7.76,7.76,0,0,0,.479-2.685V7.376a4.542,4.542,0,1,1,9.084,0V8.527a7.76,7.76,0,0,0,.479,2.685A.919.919,0,0,1,12.072,12.448Z" transform="translate(-2.326 0.055)" fill="#2e2e38" stroke="#eff3f6" stroke-width="1"/>
  <path id="Path_5" data-name="Path 5" d="M30.443,95.342a2.288,2.288,0,0,0,4.522,0Z" transform="translate(-27.065 -82.839)" fill="#2e2e38" stroke="#eff3f6" stroke-width="1"/>
  <path id="Path_35" data-name="Path 35" d="M1661.649,896.931v2.389" transform="translate(-1656.062 -896.431)" fill="#fff" stroke="#eff3f6" stroke-linecap="round" stroke-width="1"/>
  <circle id="Ellipse_14" data-name="Ellipse 14" cx="4" cy="4" r="4" transform="translate(328.508 936.889)" fill="#89f4c9"/>
  <path id="Path_34" data-name="Path 34" d="M1665.653,938l1.421,1.421,1.532-1.532.777-.777" transform="translate(-1335.01 2.622)" fill="none" stroke="#2e2e38" stroke-linecap="round" stroke-width="1"/>
</svg>
