<svg xmlns="http://www.w3.org/2000/svg" width="11.688" height="15.938" viewBox="0 0 11.688 15.938">
  <g id="Group_30528" data-name="Group 30528" transform="translate(0.531 0.532)">
    <g id="Group_30414" data-name="Group 30414" transform="translate(0.186 0.185)">
      <path id="Path_11976" data-name="Path 11976" d="M4.464,9.063A3.021,3.021,0,0,0,7.413,8.3L10.38,5.33A3.016,3.016,0,1,0,6.115,1.065L3.148,4.032A3.023,3.023,0,0,0,2.386,7" transform="translate(-0.789 -0.185)" fill="none" stroke="#000" stroke-linecap="round" stroke-width="1"/>
      <path id="Path_11977" data-name="Path 11977" d="M6.987,8.364a3.023,3.023,0,0,0-2.955.765L1.065,12.1A3.016,3.016,0,0,0,5.33,16.361L8.3,13.394a3.018,3.018,0,0,0,.778-2.9" transform="translate(-0.185 -2.52)" fill="none" stroke="#000" stroke-linecap="round" stroke-width="1"/>
    </g>
  </g>
</svg>
