<svg xmlns="http://www.w3.org/2000/svg" width="19.503" height="22.521" viewBox="0 0 19.503 22.521">
  <g id="Group_653" data-name="Group 653" transform="translate(-0.028 -0.028)">
    <g id="Group_650" data-name="Group 650" transform="translate(0 0)">
      <path id="Path_11788" data-name="Path 11788" d="M17.505,6.7h1.121a2.266,2.266,0,0,1,2.266,2.266V21.323a2.266,2.266,0,0,1-2.266,2.266H11.565A2.266,2.266,0,0,1,9.3,21.323" transform="translate(-5.385 -3.877)" fill="none" stroke="#6f87f6" stroke-linecap="round" stroke-width="1"/>
      <path id="Path_11789" data-name="Path 11789" d="M25.875,12.248H27a2.266,2.266,0,0,1,2.266,2.266V26.874A2.266,2.266,0,0,1,27,29.141H19.935a2.266,2.266,0,0,1-2.266-2.266" transform="translate(-10.231 -7.092)" fill="none" stroke="#6f87f6" stroke-linecap="round" stroke-width="1"/>
      <path id="Path_11790" data-name="Path 11790" d="M10.581,18.147H3.52a2.266,2.266,0,0,1-2.266-2.266V3.52A2.266,2.266,0,0,1,3.52,1.254h7.062A2.266,2.266,0,0,1,12.847,3.52V15.881A2.266,2.266,0,0,1,10.581,18.147Z" transform="translate(-0.726 -0.726)" fill="none" stroke="#6f87f6" stroke-linecap="round" stroke-width="1"/>
      <line id="Line_44" data-name="Line 44" x2="6.416" transform="translate(3.215 5.691)" fill="none" stroke="#6f87f6" stroke-linecap="round" stroke-width="1"/>
      <line id="Line_45" data-name="Line 45" x2="4.335" transform="translate(3.215 8.531)" fill="none" stroke="#6f87f6" stroke-linecap="round" stroke-width="1"/>
      <line id="Line_46" data-name="Line 46" x2="2.428" transform="translate(3.215 11.37)" fill="none" stroke="#6f87f6" stroke-linecap="round" stroke-width="1"/>
    </g>
  </g>
</svg>
