<svg xmlns="http://www.w3.org/2000/svg" width="12.812" height="17" viewBox="0 0 12.812 17">
  <g id="Group_30515" data-name="Group 30515" transform="translate(-2.334 -2.334)">
    <g id="Group_1070" data-name="Group 1070" transform="translate(2.834 2.834)">
      <path id="Path_11888" data-name="Path 11888" d="M28.5,16.185H22.329a1.494,1.494,0,0,1-1.494-1.494V4.328a1.494,1.494,0,0,1,1.494-1.494h4.144a1.494,1.494,0,0,1,1.064.446l2.03,2.061A1.494,1.494,0,0,1,30,6.389v8.3A1.494,1.494,0,0,1,28.5,16.185Z" transform="translate(-18.186 -2.834)" fill="rgba(0,0,0,0)" stroke="#fc8a06" stroke-linecap="round" stroke-width="1"/>
      <path id="Path_11889" data-name="Path 11889" d="M12,31.467v1.224A1.494,1.494,0,0,1,10.5,34.185H4.328a1.494,1.494,0,0,1-1.494-1.494V22.328a1.494,1.494,0,0,1,1.494-1.494H5.2" transform="translate(-2.834 -18.185)" fill="rgba(0,0,0,0)" stroke="#fc8a06" stroke-linecap="round" stroke-width="1"/>
      <line id="Line_67" data-name="Line 67" x2="5.071" transform="translate(4.436 4.763)" fill="none" stroke="#fc8a06" stroke-linecap="round" stroke-width="1"/>
      <line id="Line_68" data-name="Line 68" x2="3.427" transform="translate(4.436 7.007)" fill="none" stroke="#fc8a06" stroke-linecap="round" stroke-width="1"/>
      <line id="Line_69" data-name="Line 69" x2="1.891" transform="translate(4.436 9.251)" fill="none" stroke="#fc8a06" stroke-linecap="round" stroke-width="1"/>
      <path id="Path_11890" data-name="Path 11890" d="M61.452,5.9V7.221a1.494,1.494,0,0,0,1.494,1.494H64.27" transform="translate(-52.825 -5.446)" fill="rgba(0,0,0,0)" stroke="#fc8a06" stroke-linecap="round" stroke-width="1"/>
    </g>
  </g>
</svg>
