<svg xmlns="http://www.w3.org/2000/svg" width="29" height="29" viewBox="0 0 29 29">
  <g id="Group_30299" data-name="Group 30299" transform="translate(-280 -917)">
    <g id="Ellipse_13" data-name="Ellipse 13" transform="translate(280 917)" fill="none" stroke="#a7a7a7" stroke-width="1">
      <circle cx="14.5" cy="14.5" r="14.5" stroke="none"/>
      <circle cx="14.5" cy="14.5" r="14" fill="none"/>
    </g>
    <g id="Group_170" data-name="Group 170" transform="translate(287.707 923.359)">
      <g id="Group_168" data-name="Group 168" transform="translate(0.894 0.894)">
        <path id="Path_11661" data-name="Path 11661" d="M5.964,13.78l-2.287.591a.674.674,0,0,1-.821-.821l.591-2.287A3.425,3.425,0,0,1,4.342,9.7l6.2-6.2a2.254,2.254,0,0,1,3.187,3.188l-6.2,6.2A3.424,3.424,0,0,1,5.964,13.78Z" transform="translate(-2.834 -2.835)" fill="none" stroke="#a7a7a7" stroke-linecap="round" stroke-width="1"/>
        <line id="Line_22" data-name="Line 22" x2="3.188" y2="3.188" transform="translate(6.818 1.553)" fill="none" stroke="#a7a7a7" stroke-linecap="round" stroke-width="1"/>
        <line id="Line_23" data-name="Line 23" x2="3.188" y2="3.188" transform="translate(1.528 6.842)" fill="none" stroke="#a7a7a7" stroke-linecap="round" stroke-width="1"/>
        <line id="Line_24" data-name="Line 24" x2="11.395" transform="translate(0.054 14.997)" fill="none" stroke="#a7a7a7" stroke-linecap="round" stroke-width="1"/>
      </g>
    </g>
  </g>
</svg>
