<svg xmlns="http://www.w3.org/2000/svg" width="40" height="40" viewBox="0 0 40 40">
  <g id="Group_1119" data-name="Group 1119" transform="translate(-33 -1517)">
    <g id="Group_660" data-name="Group 660" transform="translate(-246.954 600.047)">
      <circle id="Ellipse_13" data-name="Ellipse 13" cx="20" cy="20" r="20" transform="translate(279.953 916.953)" fill="#464646"/>
    </g>
    <g id="Group_661" data-name="Group 661" transform="translate(42.128 1529.701)">
      <g id="Group_600" data-name="Group 600" transform="translate(0.159 0.159)">
        <path id="Path_11780" data-name="Path 11780" d="M20.455,14.348H2.433a1.7,1.7,0,0,1-1.7-1.7v-10A1.911,1.911,0,0,1,2.642.73h17.6a1.911,1.911,0,0,1,1.911,1.911v10A1.7,1.7,0,0,1,20.455,14.348Z" transform="translate(-0.731 -0.73)" fill="none" stroke="#fff" stroke-linecap="round" stroke-width="1"/>
        <path id="Path_11781" data-name="Path 11781" d="M25.3,5.023l-8.366,8.059a2.553,2.553,0,0,1-3.543,0L5.007,5.007" transform="translate(-4.448 -4.447)" fill="none" stroke="#fff" stroke-linecap="round" stroke-width="1"/>
        <line id="Line_33" data-name="Line 33" y1="6.422" x2="6.422" transform="translate(0.53 6.666)" fill="none" stroke="#fff" stroke-linecap="round" stroke-width="1"/>
        <line id="Line_34" data-name="Line 34" x1="6.349" y1="6.349" transform="translate(14.549 6.741)" fill="none" stroke="#fff" stroke-linecap="round" stroke-width="1"/>
      </g>
    </g>
  </g>
</svg>
