<svg xmlns="http://www.w3.org/2000/svg" width="15.009" height="9.383" viewBox="0 0 15.009 9.383">
  <g id="Group_30517" data-name="Group 30517" transform="translate(-18.807 -350.726)">
    <g id="Group_745" data-name="Group 745" transform="translate(19 350.966)">
      <g id="Group_746" data-name="Group 746" transform="translate(0 0)">
        <path id="Path_11809" data-name="Path 11809" d="M7.827,4.415A8.247,8.247,0,0,0,1.871,6.948a1.629,1.629,0,0,0,0,2.254,8.271,8.271,0,0,0,11.913,0,1.629,1.629,0,0,0,0-2.254A8.247,8.247,0,0,0,7.827,4.415Z" transform="translate(-0.993 -3.092)" fill="none" stroke="#231f20" stroke-linecap="round" stroke-width="1"/>
        <path id="Path_11810" data-name="Path 11810" d="M17.453,8.983c-.054,0-.107,0-.16.008a1.6,1.6,0,0,1-2.123,2.123c0,.053-.008.106-.008.16a2.291,2.291,0,1,0,2.291-2.291" transform="translate(-10.619 -6.291)" fill="none" stroke="#2e2e38" stroke-width="1"/>
        <line id="Line_47" data-name="Line 47" y1="1.448" x2="0.677" transform="translate(9.97 0.425)" fill="none" stroke="#231f20" stroke-linecap="round" stroke-width="1"/>
        <line id="Line_48" data-name="Line 48" y1="2.004" x2="1.625" transform="translate(11.566 0.79)" fill="none" stroke="#231f20" stroke-linecap="round" stroke-width="1"/>
        <line id="Line_49" data-name="Line 49" y1="0.943" x2="1.137" transform="translate(12.975 3.119)" fill="none" stroke="#231f20" stroke-linecap="round" stroke-width="1"/>
      </g>
    </g>
  </g>
</svg>
