<svg xmlns="http://www.w3.org/2000/svg" width="16.811" height="20.578" viewBox="0 0 16.811 20.578">
  <g id="Group_30487" data-name="Group 30487" transform="translate(-608.594 -57.5)">
    <rect id="Rectangle_8330" data-name="Rectangle 8330" width="15.811" height="13.835" rx="2" transform="translate(609.094 63.743)" fill="rgba(0,0,0,0)" stroke="#6f6f6f" stroke-width="1"/>
    <path id="Path_11682" data-name="Path 11682" d="M4.869,12.1V9.657A1.674,1.674,0,0,1,6.543,7.983H17.32a1.674,1.674,0,0,1,1.674,1.674V12.1" transform="translate(605.068 51.893)" fill="rgba(0,0,0,0)" stroke="#6f6f6f" stroke-width="1"/>
    <path id="Path_11683" data-name="Path 11683" d="M11.437,5.528h0a.849.849,0,0,1-.849-.849V2.625a.849.849,0,1,1,1.7,0V4.679A.849.849,0,0,1,11.437,5.528Z" transform="translate(601.72 56.224)" fill="rgba(0,0,0,0)" stroke="#6f6f6f" stroke-width="1"/>
    <path id="Path_11684" data-name="Path 11684" d="M29.984,5.528h0a.849.849,0,0,1-.849-.849V2.625a.849.849,0,0,1,1.7,0V4.679A.849.849,0,0,1,29.984,5.528Z" transform="translate(590.86 56.224)" fill="rgba(0,0,0,0)" stroke="#6f6f6f" stroke-width="1"/>
    <path id="Path_11685" data-name="Path 11685" d="M0,1.676,1.676,0,5.644,3.969" transform="translate(616.407 66.52) rotate(45)" fill="rgba(0,0,0,0)" stroke="#6f6f6f" stroke-width="1"/>
  </g>
</svg>
