<svg xmlns="http://www.w3.org/2000/svg" width="17.338" height="19" viewBox="0 0 17.338 19">
  <g id="Group_5" data-name="Group 5" transform="translate(0.5 0.5)">
    <path id="Path_2" data-name="Path 2" d="M9.658,3.456l-6.4,7.507a1.768,1.768,0,0,0-.423,1.148v6.955A1.769,1.769,0,0,0,4.6,20.835H6.643a1.769,1.769,0,0,0,1.769-1.769V18.2a1.769,1.769,0,0,1,1.769-1.769h1.646A1.769,1.769,0,0,1,13.6,18.2v.87a1.769,1.769,0,0,0,1.769,1.769H17.4a1.769,1.769,0,0,0,1.769-1.769V12.111a1.768,1.768,0,0,0-.423-1.148l-6.4-7.507A1.769,1.769,0,0,0,9.658,3.456Z" transform="translate(-2.835 -2.835)" fill="none" stroke="#6f6f6f" stroke-linecap="round" stroke-linejoin="round" stroke-width="1"/>
  </g>
</svg>
