<svg xmlns="http://www.w3.org/2000/svg" width="31" height="19" viewBox="0 0 31 19"><defs><style>.a,.c{fill:none;}.a{stroke:#707070;stroke-linecap:round;stroke-linejoin:round;}.b{stroke:none;}</style></defs><g transform="translate(-383 -267.414)"><g class="a" transform="translate(385 267.414)"><circle class="b" cx="4.5" cy="4.5" r="4.5"/><circle class="c" cx="4.5" cy="4.5" r="4"/></g><g class="a" transform="translate(383 272.414)"><path class="b" d="M6.5,0h0A6.5,6.5,0,0,1,13,6.5v4.25A3.25,3.25,0,0,1,9.75,14H3.25A3.25,3.25,0,0,1,0,10.75V6.5A6.5,6.5,0,0,1,6.5,0Z"/><path class="c" d="M6.5.5h0a6,6,0,0,1,6,6v4.158A2.842,2.842,0,0,1,9.658,13.5H3.342A2.842,2.842,0,0,1,.5,10.658V6.5a6,6,0,0,1,6-6Z"/></g><g class="a" transform="translate(394 267.414)"><circle class="b" cx="4.5" cy="4.5" r="4.5"/><circle class="c" cx="4.5" cy="4.5" r="4"/></g><g class="a" transform="translate(392 272.414)"><path class="b" d="M6.5,0h0A6.5,6.5,0,0,1,13,6.5v4.25A3.25,3.25,0,0,1,9.75,14H3.25A3.25,3.25,0,0,1,0,10.75V6.5A6.5,6.5,0,0,1,6.5,0Z"/><path class="c" d="M6.5.5h0a6,6,0,0,1,6,6v4.158A2.842,2.842,0,0,1,9.658,13.5H3.342A2.842,2.842,0,0,1,.5,10.658V6.5a6,6,0,0,1,6-6Z"/></g><g class="a" transform="translate(403 267.415)"><circle class="b" cx="4.5" cy="4.5" r="4.5"/><circle class="c" cx="4.5" cy="4.5" r="4"/></g><g class="a" transform="translate(401 272.415)"><path class="b" d="M6.5,0h0A6.5,6.5,0,0,1,13,6.5v4.25A3.25,3.25,0,0,1,9.75,14H3.25A3.25,3.25,0,0,1,0,10.75V6.5A6.5,6.5,0,0,1,6.5,0Z"/><path class="c" d="M6.5.5h0a6,6,0,0,1,6,6v4.158A2.842,2.842,0,0,1,9.658,13.5H3.342A2.842,2.842,0,0,1,.5,10.658V6.5a6,6,0,0,1,6-6Z"/></g></g></svg>