<svg xmlns="http://www.w3.org/2000/svg" width="31" height="19" viewBox="0 0 31 19">
  <g id="Group_30486" data-name="Group 30486" transform="translate(-776 -59)">
    <g id="Ellipse_61" data-name="Ellipse 61" transform="translate(778 59)" fill="none" stroke="#707070" stroke-linecap="round" stroke-linejoin="round" stroke-width="1">
      <circle cx="4.5" cy="4.5" r="4.5" stroke="none"/>
      <circle cx="4.5" cy="4.5" r="4" fill="none"/>
    </g>
    <g id="Rectangle_8707" data-name="Rectangle 8707" transform="translate(776 64)" fill="none" stroke="#707070" stroke-linecap="round" stroke-linejoin="round" stroke-width="1">
      <path d="M6.5,0h0A6.5,6.5,0,0,1,13,6.5v4.25A3.25,3.25,0,0,1,9.75,14H3.25A3.25,3.25,0,0,1,0,10.75V6.5A6.5,6.5,0,0,1,6.5,0Z" stroke="none"/>
      <path d="M6.5.5h0a6,6,0,0,1,6,6v4.158A2.842,2.842,0,0,1,9.658,13.5H3.342A2.842,2.842,0,0,1,.5,10.658V6.5a6,6,0,0,1,6-6Z" fill="none"/>
    </g>
    <g id="Ellipse_62" data-name="Ellipse 62" transform="translate(787 59)" fill="none" stroke="#707070" stroke-linecap="round" stroke-linejoin="round" stroke-width="1">
      <circle cx="4.5" cy="4.5" r="4.5" stroke="none"/>
      <circle cx="4.5" cy="4.5" r="4" fill="none"/>
    </g>
    <g id="Rectangle_8708" data-name="Rectangle 8708" transform="translate(785 64)" fill="none" stroke="#707070" stroke-linecap="round" stroke-linejoin="round" stroke-width="1">
      <path d="M6.5,0h0A6.5,6.5,0,0,1,13,6.5v4.25A3.25,3.25,0,0,1,9.75,14H3.25A3.25,3.25,0,0,1,0,10.75V6.5A6.5,6.5,0,0,1,6.5,0Z" stroke="none"/>
      <path d="M6.5.5h0a6,6,0,0,1,6,6v4.158A2.842,2.842,0,0,1,9.658,13.5H3.342A2.842,2.842,0,0,1,.5,10.658V6.5a6,6,0,0,1,6-6Z" fill="none"/>
    </g>
    <g id="Ellipse_63" data-name="Ellipse 63" transform="translate(796 59)" fill="none" stroke="#707070" stroke-linecap="round" stroke-linejoin="round" stroke-width="1">
      <circle cx="4.5" cy="4.5" r="4.5" stroke="none"/>
      <circle cx="4.5" cy="4.5" r="4" fill="none"/>
    </g>
    <g id="Rectangle_8709" data-name="Rectangle 8709" transform="translate(794 64)" fill="none" stroke="#707070" stroke-linecap="round" stroke-linejoin="round" stroke-width="1">
      <path d="M6.5,0h0A6.5,6.5,0,0,1,13,6.5v4.25A3.25,3.25,0,0,1,9.75,14H3.25A3.25,3.25,0,0,1,0,10.75V6.5A6.5,6.5,0,0,1,6.5,0Z" stroke="none"/>
      <path d="M6.5.5h0a6,6,0,0,1,6,6v4.158A2.842,2.842,0,0,1,9.658,13.5H3.342A2.842,2.842,0,0,1,.5,10.658V6.5a6,6,0,0,1,6-6Z" fill="none"/>
    </g>
  </g>
</svg>
