<svg xmlns="http://www.w3.org/2000/svg" xmlns:xlink="http://www.w3.org/1999/xlink" width="22" height="22" viewBox="0 0 22 22">
  <defs>
    <clipPath id="clip-path">
      <rect id="Rectangle_8392" data-name="Rectangle 8392" width="22" height="22" fill="#05132e"/>
    </clipPath>
  </defs>
  <g id="Group_498" data-name="Group 498" clip-path="url(#clip-path)">
    <path id="Path_11757" data-name="Path 11757" d="M20.371,0H1.624A1.6,1.6,0,0,0,0,1.586V20.41A1.608,1.608,0,0,0,1.624,22H20.371A1.611,1.611,0,0,0,22,20.414V1.586A1.608,1.608,0,0,0,20.371,0ZM6.527,18.747H3.261V8.246H6.527ZM4.894,6.815A1.891,1.891,0,1,1,6.785,4.924,1.892,1.892,0,0,1,4.894,6.815ZM18.747,18.747H15.486v-5.1c0-1.216-.021-2.784-1.7-2.784-1.7,0-1.955,1.328-1.955,2.7v5.191H8.577V8.246H11.7V9.681h.043a3.427,3.427,0,0,1,3.085-1.7c3.3,0,3.914,2.174,3.914,5Z" fill="#05132e"/>
  </g>
</svg>
