<svg id="Group_30535" data-name="Group 30535" xmlns="http://www.w3.org/2000/svg" width="34.018" height="34.018" viewBox="0 0 34.018 34.018">
  <circle id="Ellipse_154" data-name="Ellipse 154" cx="12.027" cy="12.027" r="12.027" transform="translate(17.009 34.018) rotate(-135)" fill="#05132e"/>
  <path id="iconmonstr-instagram-11" d="M7.148,1.289c1.91,0,2.136.007,2.891.042a2.688,2.688,0,0,1,2.933,2.932c.034.754.041.981.041,2.891s0,2.136-.041,2.891a2.688,2.688,0,0,1-2.927,2.927c-.754.034-.98.042-2.891.042s-2.136,0-2.891-.042A2.688,2.688,0,0,1,1.33,10.045c-.034-.754-.041-.981-.041-2.9s.008-2.136.042-2.891A2.688,2.688,0,0,1,4.264,1.33C5.018,1.3,5.244,1.289,7.148,1.289ZM7.148,0C5.211,0,4.968.008,4.205.042A3.948,3.948,0,0,0,.044,4.2C.008,4.968,0,5.211,0,7.148S.008,9.341.042,10.1A3.948,3.948,0,0,0,4.2,14.265c.764.034,1.007.042,2.95.042s2.187-.008,2.95-.042a3.948,3.948,0,0,0,4.16-4.162c.036-.764.044-1.007.044-2.95S14.3,4.966,14.266,4.2A3.948,3.948,0,0,0,10.1.044C9.341.008,9.1,0,7.148,0Zm0,3.48a3.674,3.674,0,1,0,3.68,3.668A3.674,3.674,0,0,0,7.148,3.48Zm0,6.058A2.383,2.383,0,1,1,9.53,7.156,2.383,2.383,0,0,1,7.148,9.538Zm3.825-7.062a.859.859,0,1,0,.858.859.859.859,0,0,0-.858-.859Z" transform="translate(9.902 10.165)" fill="#fff"/>
</svg>
