<svg xmlns="http://www.w3.org/2000/svg" width="23.785" height="18.792" viewBox="0 0 23.785 18.792">
  <g id="Group_30547" data-name="Group 30547" transform="translate(-24021.484 66.489)">
    <g id="Group_967" data-name="Group 967" transform="translate(24021.984 -48.196) rotate(-90)">
      <g id="Group_840" data-name="Group 840" transform="translate(0 0)">
        <path id="Path_11844" data-name="Path 11844" d="M9.747,0h1.332A2.691,2.691,0,0,1,13.77,2.691V17.373a2.691,2.691,0,0,1-2.691,2.691H2.691A2.691,2.691,0,0,1,0,17.373" transform="translate(4.023 2.721)" fill="rgba(0,0,0,0)" stroke="#fc8a06" stroke-width="1"/>
        <path id="Path_11846" data-name="Path 11846" d="M11.079,20.064H2.691A2.691,2.691,0,0,1,0,17.373V2.691A2.691,2.691,0,0,1,2.691,0h8.388A2.691,2.691,0,0,1,13.77,2.691V17.373A2.691,2.691,0,0,1,11.079,20.064Z" transform="translate(0 0)" fill="rgba(0,0,0,0)" stroke="#fc8a06" stroke-width="1"/>
      </g>
    </g>
    <path id="Path_11865" data-name="Path 11865" d="M24011.715-62.659l6.844,6.845,6.846-6.845" transform="translate(13 4)" fill="none" stroke="#fc8a06" stroke-width="1"/>
  </g>
</svg>
