<svg xmlns="http://www.w3.org/2000/svg" xmlns:xlink="http://www.w3.org/1999/xlink" width="16.285" height="23.109" viewBox="0 0 16.285 23.109">
  <defs>
    <clipPath id="clip-path">
      <rect id="Rectangle_8326" data-name="Rectangle 8326" width="16.285" height="23.109" fill="#fc0b06" stroke="#ff0500" stroke-width="1"/>
    </clipPath>
  </defs>
  <g id="Group_30525" data-name="Group 30525" transform="translate(-43.107 -760)">
    <g id="Group_180" data-name="Group 180" transform="translate(43.107 760)">
      <line id="Line_29" data-name="Line 29" x2="8.261" transform="translate(4.078 8.697)" fill="none" stroke="#fc0b06" stroke-linecap="round" stroke-width="1"/>
      <line id="Line_30" data-name="Line 30" x2="5.582" transform="translate(4.078 11.44)" fill="none" stroke="#fc0b06" stroke-linecap="round" stroke-width="1"/>
      <line id="Line_31" data-name="Line 31" x2="3.126" transform="translate(4.078 14.184)" fill="none" stroke="#fc0b06" stroke-linecap="round" stroke-width="1"/>
      <g id="Group_181" data-name="Group 181" transform="translate(0 0)">
        <g id="Group_180-2" data-name="Group 180" clip-path="url(#clip-path)">
          <path id="Path_11669" data-name="Path 11669" d="M2.835,7.434H7.11v-4.6" transform="translate(-2.155 -2.155)" fill="none" stroke="#fc0b06" stroke-linecap="round" stroke-width="1"/>
          <path id="Path_11670" data-name="Path 11670" d="M14.844,24.585H5.752a2.918,2.918,0,0,1-2.917-2.917V5.752A2.917,2.917,0,0,1,5.752,2.835h9.092a2.917,2.917,0,0,1,2.917,2.917V21.667a2.917,2.917,0,0,1-2.917,2.917Z" transform="translate(-2.155 -2.155)" fill="none" stroke="#fc0b06" stroke-linecap="round" stroke-width="1"/>
          <path id="Path_11671" data-name="Path 11671" d="M2.835,74.515v1.646a2.917,2.917,0,0,0,2.917,2.917h9.092a2.917,2.917,0,0,0,2.917-2.917V74.515Z" transform="translate(-2.155 -56.649)" fill="#fc0b06" stroke="#fc0b06" stroke-width="1"/>
          <path id="Path_11672" data-name="Path 11672" d="M2.835,74.515v1.646a2.917,2.917,0,0,0,2.917,2.917h9.092a2.917,2.917,0,0,0,2.917-2.917V74.515Z" transform="translate(-2.155 -56.649)" fill="none" stroke="#fc0b06" stroke-linecap="round" stroke-width="1"/>
        </g>
      </g>
    </g>
    <text id="PDF" transform="translate(48 781)" fill="#fff" font-size="4" font-family="RocGrotesk-Regular, Roc Grotesk" letter-spacing="0.025em"><tspan x="0" y="0">PDF</tspan></text>
  </g>
</svg>
