<svg xmlns="http://www.w3.org/2000/svg" width="17.717" height="11.624" viewBox="0 0 17.717 11.624">
  <g id="Group_661" data-name="Group 661" transform="translate(0.341 0.341)">
    <g id="Group_600" data-name="Group 600" transform="translate(0.159 0.159)">
      <path id="Path_11780" data-name="Path 11780" d="M16.12,11.354H2.059A1.328,1.328,0,0,1,.731,10.026V2.221A1.491,1.491,0,0,1,2.222.73H15.957a1.491,1.491,0,0,1,1.491,1.491v7.806A1.328,1.328,0,0,1,16.12,11.354Z" transform="translate(-0.731 -0.73)" fill="none" stroke="#fc8a06" stroke-linecap="round" stroke-width="1"/>
      <path id="Path_11781" data-name="Path 11781" d="M20.838,5.02l-6.527,6.288a1.992,1.992,0,0,1-2.764,0l-6.54-6.3" transform="translate(-4.57 -4.57)" fill="none" stroke="#fc8a06" stroke-linecap="round" stroke-width="1"/>
      <line id="Line_33" data-name="Line 33" y1="5.01" x2="5.01" transform="translate(0.413 5.201)" fill="none" stroke="#fc8a06" stroke-linecap="round" stroke-width="1"/>
      <line id="Line_34" data-name="Line 34" x1="4.953" y1="4.953" transform="translate(11.351 5.259)" fill="none" stroke="#fc8a06" stroke-linecap="round" stroke-width="1"/>
    </g>
  </g>
</svg>
