<svg xmlns="http://www.w3.org/2000/svg" width="23.041" height="16.117" viewBox="0 0 23.041 16.117">
  <g id="Group_30473" data-name="Group 30473" transform="translate(0 0)">
    <g id="YouTube_full-color_icon__2017_" data-name="YouTube_full-color_icon_(2017)" transform="translate(0 0)">
      <path id="Subtraction_19" data-name="Subtraction 19" d="M11.821,16.1c-1.986,0-3.982-.045-5.619-.127a25.561,25.561,0,0,1-3.686-.362A2.883,2.883,0,0,1,.482,13.574,25.5,25.5,0,0,1,0,8.031a27.845,27.845,0,0,1,.466-5.5A2.887,2.887,0,0,1,2.5.5,54.263,54.263,0,0,1,11.356,0c4.42,0,8.43.212,9.131.483a2.871,2.871,0,0,1,1.289.744,2.9,2.9,0,0,1,.745,1.29,16.94,16.94,0,0,1,.389,2.517c.083.931.125,1.938.123,2.994a27.612,27.612,0,0,1-.5,5.545A2.881,2.881,0,0,1,20.5,15.609a21.821,21.821,0,0,1-3.465.37C15.548,16.056,13.744,16.1,11.821,16.1ZM9.283,4.6h0v6.9L15.3,8.045Z" transform="translate(0.006 0.018)" fill="#05132e"/>
    </g>
  </g>
</svg>
