<svg xmlns="http://www.w3.org/2000/svg" xmlns:xlink="http://www.w3.org/1999/xlink" width="40" height="40" viewBox="946.0003356933594 408 40 40"><g transform="matrix(1,0,0,1,-52,80)"><g transform="matrix(1,0,0,1,718.046875,-588.9534912109375)"><ellipse cx="20" cy="20" rx="20" ry="20" transform="matrix(1,0,0,1,279.9534606933594,916.9534912109375)" fill="#f5f6f7" fill-rule="evenodd"/></g><g transform="matrix(1,0,0,1,1007.126953125,340.7008056640625)"><g transform="matrix(1,0,0,1,0.15917867422103882,0.15896689891815186)"><path d="M 20.45488548278809 14.34763526916504 L 2.433286190032959 14.34763526916504 C 1.493168830871582 14.34763526916504 0.7309999465942383 13.58546733856201 0.7309999465942383 12.64534854888916 L 0.7309999465942383 2.640852212905884 C 0.7309999465942383 1.585591793060303 1.586460947990417 0.7300000190734863 2.641721248626709 0.7300000190734863 L 20.24645042419434 0.7300000190734863 C 21.30171012878418 0.7300000190734863 22.15717315673828 1.585591793060303 22.15717315673828 2.640852212905884 L 22.15717315673828 12.64534854888916 C 22.15717315673828 13.58546733856201 21.3950023651123 14.34763526916504 20.45488548278809 14.34763526916504 Z" transform="matrix(1,0,0,1,-0.7309999465942383,-0.7300000190734863)" fill="none" stroke="#6f87f6" stroke-width="1" stroke-linecap="round"/><path d="M 25.29809188842773 5.023094177246094 L 16.93216133117676 13.08245658874512 C 15.94323825836182 14.03513431549072 14.37794971466064 14.03500366210938 13.38902568817139 13.08232593536377 L 5.006999969482422 5.006999969482422" transform="matrix(1,0,0,1,-4.447508811950684,-4.447378158569336)" fill="none" stroke="#6f87f6" stroke-width="1" stroke-linecap="round"/><rect x="0" y="0" width="6.4217143058776855" height="0" transform="matrix(1,0,0,1,0.5299330949783325,13.087703704833984)" fill="none" stroke="#6f87f6" stroke-width="1" stroke-linecap="round"/><rect x="0" y="0" width="0" height="0" transform="matrix(1,0,0,1,20.89823865890503,13.08969259262085)" fill="none" stroke="#6f87f6" stroke-width="1" stroke-linecap="round"/></g></g></g></svg>