<svg width="40" height="40" viewBox="0 0 40 40" fill="none" xmlns="http://www.w3.org/2000/svg">
<circle cx="20" cy="20" r="20" fill="#EFF3F6"/>
<path d="M22.3409 11.5303H23.4619C24.7134 11.5303 25.7275 12.5448 25.7275 13.7959V26.1568C25.7275 27.4083 24.7134 28.4228 23.4619 28.4228H16.4004C15.1493 28.4228 14.1348 27.4083 14.1348 26.1568" stroke="#6F87F6" stroke-linecap="round"/>
<path d="M25.8643 13.8677H26.9853C28.2368 13.8677 29.2509 14.8822 29.2509 16.1333V28.4938C29.2509 29.7457 28.2368 30.7603 26.9853 30.7603H19.9238C18.6727 30.7603 17.6582 29.7457 17.6582 28.4938" stroke="#6F87F6" stroke-linecap="round"/>
<path d="M20.0762 26.1323H16.5477H13.0146C11.7635 26.1323 10.749 25.1178 10.749 23.8667V17.2716V11.5058C10.749 10.2543 11.7635 9.23975 13.0146 9.23975H17.1147H20.0762C21.3277 9.23975 22.3418 10.2543 22.3418 11.5058V16.8469V23.8667C22.3418 25.1178 21.3277 26.1323 20.0762 26.1323Z" stroke="#6F87F6" stroke-linecap="round"/>
<line x1="13.9355" y1="13.9033" x2="19.3518" y2="13.9033" stroke="#6F87F6" stroke-linecap="round"/>
<line x1="13.9355" y1="16.7427" x2="17.271" y2="16.7427" stroke="#6F87F6" stroke-linecap="round"/>
<line x1="13.9355" y1="19.582" x2="15.3632" y2="19.582" stroke="#6F87F6" stroke-linecap="round"/>
</svg>
