<svg xmlns="http://www.w3.org/2000/svg" xmlns:xlink="http://www.w3.org/1999/xlink" width="40" height="40" viewBox="763 408 40 40"><g transform="matrix(1,0,0,1,-92,79)"><g transform="matrix(1,0,0,1,575,-588)"><ellipse cx="20" cy="20" rx="20" ry="20" transform="matrix(1,0,0,1,280,917)" fill="#eff3f6" fill-rule="evenodd"/></g><g transform="matrix(1,0,0,1,865.1298828125,337.25433349609375)"><g transform="matrix(1,0,0,1,0,0.0005035400390625)"><path d="M 13.42502784729004 39.91947174072266 L 4.238000869750977 34.62977600097656 L 4.238000869750977 22.79790115356445 L 13.42502784729004 28.08759689331055 L 13.42502784729004 39.91947174072266 Z" transform="matrix(1,0,0,1,-2.9925711154937744,-16.098384857177734)" fill="none" stroke="#6f87f6" stroke-width="1" stroke-linecap="round" stroke-linejoin="round"/><path d="M 44.93422698974609 22.79750061035156 L 35.74720001220703 28.08719825744629 L 35.74720001220703 39.91907501220703 L 44.93422698974609 34.62937927246094 L 44.93422698974609 22.79750061035156 Z" transform="matrix(1,0,0,1,-25.242097854614258,-16.098100662231445)" fill="none" stroke="#6f87f6" stroke-width="1" stroke-linecap="round" stroke-linejoin="round"/><rect x="0" y="0" width="0" height="0" transform="matrix(1,0,0,1,19.692129135131836,6.534860968589783)" fill="none" stroke="#6f87f6" stroke-width="1" stroke-linecap="round" stroke-linejoin="round"/><rect x="0" y="0" width="9.187026977539062" height="0" transform="matrix(1,0,0,1,1.245311975479126,6.534860968589783)" fill="none" stroke="#6f87f6" stroke-width="1" stroke-linecap="round" stroke-linejoin="round"/></g></g></g></svg>