<svg width="40" height="40" viewBox="0 0 40 40" fill="none" xmlns="http://www.w3.org/2000/svg">
<circle cx="20" cy="20" r="20" fill="#EFF3F6"/>
<path d="M28.03 11.8208H25.7873C25.5506 13.553 24.0689 14.8887 22.2716 14.8887C20.4746 14.8887 18.9929 13.553 18.7561 11.8208H11.9685C10.0863 11.8208 8.56055 13.3466 8.56055 15.2287V24.2168C8.56055 26.099 10.0863 27.6248 11.9685 27.6248H18.818C19.1886 26.0588 20.5923 24.8921 22.2716 24.8921C23.9512 24.8921 25.3549 26.0588 25.7255 27.6248H28.03C29.9122 27.6248 31.4379 26.099 31.4379 24.2168V15.2287C31.4379 13.3466 29.9122 11.8208 28.03 11.8208Z" stroke="#6F87F6"/>
<line x1="22.7715" y1="14.8887" x2="22.7715" y2="16.8286" stroke="#6F87F6"/>
<line x1="22.7715" y1="18.207" x2="22.7715" y2="21.2391" stroke="#6F87F6"/>
<line x1="22.7715" y1="22.8926" x2="22.7715" y2="24.8325" stroke="#6F87F6"/>
</svg>
