<svg width="17" height="24" viewBox="0 0 17 24" fill="none" xmlns="http://www.w3.org/2000/svg">
<line x1="5.18555" y1="8.19629" x2="12.4467" y2="8.19629" stroke="#FC0B06" stroke-linecap="round"/>
<line x1="5.18555" y1="10.9395" x2="9.76757" y2="10.9395" stroke="#FC0B06" stroke-linecap="round"/>
<line x1="5.18555" y1="13.6831" x2="7.3114" y2="13.6831" stroke="#FC0B06" stroke-linecap="round"/>
<mask id="mask0_1_1389" style="mask-type:alpha" maskUnits="userSpaceOnUse" x="0" y="-1" width="18" height="25">
<rect x="0.607422" width="16.2855" height="23.1088" fill="#FC0B06" stroke="#FF0500"/>
</mask>
<g mask="url(#mask0_1_1389)">
<path d="M1.28711 5.27819H5.56288V0.679688" stroke="#FC0B06" stroke-linecap="round"/>
<path d="M13.2961 22.4292H4.20436C3.39874 22.4292 2.66937 22.1027 2.14164 21.5747C1.61367 21.047 1.28711 20.3176 1.28711 19.512V3.59694C1.28711 2.84599 1.57075 2.16145 2.03686 1.64451C2.57082 1.05205 3.34407 0.679688 4.20436 0.679688H13.2961C14.0192 0.679688 14.6808 0.942712 15.1905 1.37837C15.8165 1.91353 16.2134 2.70884 16.2134 3.59694V19.512C16.2134 20.2807 15.916 20.9798 15.4303 21.5009C14.8978 22.072 14.1386 22.4292 13.2961 22.4292Z" stroke="#FC0B06" stroke-linecap="round"/>
<path d="M1.28711 17.8662V19.512C1.28711 20.3176 1.61367 21.047 2.14164 21.5749C2.66937 22.1027 3.39874 22.4292 4.20436 22.4292H13.2961C14.1386 22.4292 14.8978 22.072 15.4303 21.5008C15.916 20.9798 16.2134 20.2807 16.2134 19.512V17.8662H1.28711Z" fill="#FC0B06" stroke="#FC0B06"/>
<path d="M1.28711 17.8662V19.512C1.28711 20.3176 1.61367 21.047 2.14164 21.5749C2.66937 22.1027 3.39874 22.4292 4.20436 22.4292H13.2961C14.1386 22.4292 14.8978 22.072 15.4303 21.5008C15.916 20.9798 16.2134 20.2807 16.2134 19.512V17.8662H1.28711Z" stroke="#FC0B06" stroke-linecap="round"/>
</g>
<path d="M5.85227 21L5.85227 18.0909H6.83523C7.06345 18.0909 7.25 18.1321 7.39489 18.2145C7.54072 18.2959 7.64867 18.4062 7.71875 18.5455C7.78883 18.6847 7.82386 18.84 7.82386 19.0114C7.82386 19.1828 7.78883 19.3385 7.71875 19.4787C7.64962 19.6188 7.54261 19.7306 7.39773 19.8139C7.25284 19.8963 7.06723 19.9375 6.84091 19.9375H6.13636L6.13636 19.625H6.82955C6.9858 19.625 7.11127 19.598 7.20597 19.544C7.30066 19.4901 7.36932 19.4171 7.41193 19.3253C7.45549 19.2325 7.47727 19.1278 7.47727 19.0114C7.47727 18.8949 7.45549 18.7907 7.41193 18.6989C7.36932 18.607 7.30019 18.535 7.20455 18.483C7.1089 18.4299 6.98201 18.4034 6.82386 18.4034H6.20455L6.20455 21H5.85227ZM9.38906 21H8.49134V18.0909H9.42884C9.71103 18.0909 9.95251 18.1491 10.1533 18.2656C10.354 18.3812 10.5079 18.5473 10.6149 18.7642C10.7219 18.9801 10.7754 19.2386 10.7754 19.5398C10.7754 19.8428 10.7214 20.1037 10.6135 20.3224C10.5055 20.5402 10.3483 20.7079 10.1419 20.8253C9.93546 20.9418 9.68452 21 9.38906 21ZM8.84361 20.6875H9.36634C9.60687 20.6875 9.8062 20.6411 9.96435 20.5483C10.1225 20.4555 10.2404 20.3234 10.318 20.152C10.3957 19.9806 10.4345 19.7765 10.4345 19.5398C10.4345 19.3049 10.3962 19.1027 10.3195 18.9332C10.2428 18.7628 10.1282 18.6321 9.97571 18.5412C9.82325 18.4493 9.63338 18.4034 9.40611 18.4034H8.84361V20.6875ZM11.4663 21V18.0909H13.2107V18.4034H11.8186V19.3864H13.08V19.6989H11.8186V21H11.4663Z" fill="white"/>
</svg>
